<?xml version="1.0" encoding="utf-8"?>
<!-- Generator: Adobe Illustrator 23.0.4, SVG Export Plug-In . SVG Version: 6.00 Build 0)  -->
<svg version="1.1" id="Layer_2_1_" xmlns="http://www.w3.org/2000/svg" xmlns:xlink="http://www.w3.org/1999/xlink" x="0px" y="0px"
	 viewBox="0 0 512 288" style="enable-background:new 0 0 512 288;" xml:space="preserve">
<style type="text/css">
	.st0{fill:#61DAFB;}
</style>
<g>
	<path class="st0" d="M395.7,142c0-18.5-23.2-36-58.7-46.9c8.2-36.2,4.6-65-11.5-74.2c-3.7-2.2-8-3.2-12.8-3.2v12.7
		c2.6,0,4.7,0.5,6.5,1.5c7.7,4.4,11.1,21.4,8.5,43.1c-0.6,5.4-1.7,11-2.9,16.7c-11.2-2.7-23.3-4.8-36.2-6.2
		C280.9,74.9,273,65.4,264.9,57c18.6-17.3,36-26.7,47.8-26.7V17.6l0,0c-15.7,0-36.2,11.2-56.9,30.5c-20.7-19.2-41.2-30.3-56.9-30.3
		v12.7c11.8,0,29.3,9.4,47.8,26.5c-8,8.4-15.9,17.9-23.5,28.4c-12.9,1.4-25.1,3.5-36.2,6.3c-1.3-5.7-2.3-11.2-3-16.5
		c-2.7-21.7,0.6-38.7,8.3-43.2c1.7-1,3.9-1.5,6.5-1.5V17.9l0,0c-4.8,0-9.1,1-12.9,3.2c-16,9.2-19.6,38-11.3,74.1
		c-35.4,10.9-58.5,28.4-58.5,46.9c0,18.5,23.2,36,58.7,46.9c-8.2,36.2-4.6,65,11.5,74.2c3.7,2.2,8,3.2,12.8,3.2
		c15.7,0,36.2-11.2,56.9-30.5c20.7,19.2,41.2,30.3,56.9,30.3c4.8,0,9.1-1,12.9-3.2c16-9.2,19.6-38,11.3-74.1
		C372.6,178,395.7,160.5,395.7,142z M321.5,104c-2.1,7.3-4.7,14.9-7.7,22.5c-2.3-4.6-4.8-9.1-7.5-13.7c-2.6-4.6-5.4-9-8.2-13.3
		C306.3,100.7,314.1,102.2,321.5,104z M295.5,164.7c-4.4,7.7-9,15-13.7,21.7c-8.5,0.7-17.1,1.1-25.7,1.1c-8.6,0-17.2-0.4-25.6-1.1
		c-4.7-6.8-9.3-14-13.8-21.6c-4.3-7.5-8.3-15-11.8-22.7c3.5-7.6,7.5-15.3,11.8-22.7c4.4-7.7,9-15,13.7-21.7
		c8.5-0.7,17.1-1.1,25.7-1.1c8.6,0,17.2,0.4,25.6,1.1c4.7,6.8,9.3,14,13.8,21.6c4.3,7.5,8.3,15,11.8,22.7
		C303.7,149.6,299.7,157.2,295.5,164.7z M313.9,157.3c3.1,7.6,5.7,15.3,7.9,22.7c-7.5,1.8-15.3,3.4-23.5,4.6
		c2.8-4.4,5.6-8.9,8.2-13.5C309.1,166.4,311.5,161.8,313.9,157.3z M256.1,218c-5.3-5.5-10.6-11.6-15.8-18.2
		c5.1,0.2,10.4,0.4,15.7,0.4c5.4,0,10.6-0.1,15.8-0.4C266.7,206.5,261.4,212.6,256.1,218z M213.8,184.5c-8.1-1.2-15.9-2.7-23.3-4.5
		c2.1-7.3,4.7-14.9,7.7-22.5c2.3,4.6,4.8,9.1,7.5,13.7C208.2,175.7,211,180.2,213.8,184.5z M255.8,66c5.3,5.5,10.6,11.6,15.8,18.2
		c-5.1-0.2-10.4-0.4-15.7-0.4c-5.4,0-10.6,0.1-15.8,0.4C245.3,77.6,250.6,71.5,255.8,66z M213.7,99.5c-2.8,4.4-5.6,8.9-8.2,13.5
		c-2.6,4.6-5.1,9.1-7.4,13.7c-3.1-7.6-5.7-15.3-7.9-22.7C197.7,102.3,205.6,100.7,213.7,99.5z M162.2,170.8
		C142,162.2,129,151,129,142c0-8.9,13-20.3,33.2-28.8c4.9-2.1,10.2-4,15.8-5.8c3.2,11.2,7.5,22.8,12.8,34.7
		c-5.2,11.8-9.5,23.4-12.6,34.5C172.5,174.9,167.1,172.9,162.2,170.8z M192.8,252.2c-7.7-4.4-11.1-21.4-8.5-43.1
		c0.6-5.4,1.7-11,2.9-16.7c11.2,2.7,23.3,4.8,36.2,6.2c7.7,10.5,15.7,20.1,23.7,28.5c-18.6,17.3-36,26.7-47.8,26.7
		C196.7,253.7,194.5,253.2,192.8,252.2z M327.9,208.8c2.7,21.7-0.6,38.7-8.3,43.2c-1.7,1-3.9,1.5-6.5,1.5
		c-11.8,0-29.3-9.4-47.8-26.5c8-8.4,15.9-17.9,23.5-28.4c12.9-1.4,25.1-3.5,36.2-6.3C326.2,198,327.2,203.5,327.9,208.8z
		 M349.8,170.8c-4.9,2.1-10.2,4-15.8,5.8c-3.2-11.2-7.5-22.8-12.8-34.7c5.2-11.8,9.5-23.4,12.6-34.5c5.6,1.8,11,3.7,16,5.8
		C370,121.8,383,133.1,383,142C383,151,369.9,162.3,349.8,170.8z"/>
	<path class="st0" d="M199,17.8L199,17.8L199,17.8z"/>
	<circle class="st0" cx="255.9" cy="142" r="26"/>
	<path class="st0" d="M312.7,17.7L312.7,17.7L312.7,17.7z"/>
</g>
</svg>
