<?xml version="1.0" encoding="utf-8"?>
<!-- Generator: Adobe Illustrator 23.0.4, SVG Export Plug-In . SVG Version: 6.00 Build 0)  -->
<svg version="1.1" xmlns="http://www.w3.org/2000/svg" xmlns:xlink="http://www.w3.org/1999/xlink" x="0px" y="0px"
	 viewBox="0 0 324.72 324.72" style="enable-background:new 0 0 324.72 324.72;" xml:space="preserve">
<style type="text/css">
	.st0{display:none;}
	.st1{fill:none;}
	.st2{fill:#9FDBFC;}
</style>
<g id="image" class="st0">
</g>
<g id="guides" class="st0">
</g>
<g id="bounds">
</g>
<g id="pattern">
</g>
<g id="final">
	<rect class="st1" width="324.72" height="324.72"/>
	<path class="st2" d="M304.47,20.25L304.47,20.25c-6.25-6.25-16.38-6.25-22.63,0L172.62,129.47l22.63,22.63L304.47,42.88
		C310.72,36.63,310.72,26.5,304.47,20.25z"/>
	<path class="st2" d="M304.47,304.47L304.47,304.47c6.25-6.25,6.25-16.38,0-22.63L195.25,172.62l-22.63,22.63l109.22,109.22
		C288.09,310.72,298.23,310.72,304.47,304.47z"/>
	<path class="st2" d="M20.25,304.47L20.25,304.47c6.25,6.25,16.38,6.25,22.63,0L152.1,195.25l-22.63-22.63L20.25,281.85
		C14,288.09,14,298.23,20.25,304.47z"/>
	<path class="st2" d="M20.25,20.25L20.25,20.25C14,26.5,14,36.63,20.25,42.88L129.47,152.1l22.63-22.63L42.88,20.25
		C36.63,14,26.5,14,20.25,20.25z"/>
</g>
</svg>
