<svg id="Layer_1" data-name="Layer 1" xmlns="http://www.w3.org/2000/svg" viewBox="0 0 512 288"><defs><style>.cls-1,.cls-2,.cls-3{fill:#a4c639;}.cls-1,.cls-2,.cls-4{stroke:#fff;}.cls-1{stroke-width:14.4px;}.cls-2,.cls-4{stroke-width:7.2px;}.cls-4{fill:#fff;}</style></defs><title>android</title><g id="b"><ellipse class="cls-1" cx="256" cy="96.53" rx="70.24" ry="64.84"/><rect class="cls-1" x="185.76" y="80.32" width="140.48" height="140.48" rx="16.98"/></g><g id="a"><path class="cls-2" d="M210,14.5h0a5,5,0,0,0-2,6.82L235.34,70.6a5,5,0,0,0,6.82,2h0a5,5,0,0,0,2-6.82L216.8,16.45A5,5,0,0,0,210,14.5Z"/><path id="c" class="cls-2" d="M347.85,96.53h0a18.52,18.52,0,0,0-18.52,18.52v65.61a18.52,18.52,0,0,0,18.52,18.53h0a18.53,18.53,0,0,0,18.53-18.53V115.05A18.53,18.53,0,0,0,347.85,96.53Z"/><path class="cls-2" d="M282.24,171.4h0a18.53,18.53,0,0,0-18.52,18.53v65.61a18.52,18.52,0,0,0,18.52,18.52h0a18.52,18.52,0,0,0,18.53-18.52V189.93A18.53,18.53,0,0,0,282.24,171.4Z"/></g><path class="cls-2" d="M302,14.5h0a5,5,0,0,1,2,6.82L276.66,70.6a5,5,0,0,1-6.82,2h0a5,5,0,0,1-2-6.82L295.2,16.45A5,5,0,0,1,302,14.5Z"/><path class="cls-2" d="M164.15,96.53h0a18.52,18.52,0,0,1,18.52,18.52v65.61a18.52,18.52,0,0,1-18.52,18.53h0a18.53,18.53,0,0,1-18.53-18.53V115.05A18.53,18.53,0,0,1,164.15,96.53Z"/><path class="cls-2" d="M229.76,171.4h0a18.53,18.53,0,0,1,18.52,18.53v65.61a18.52,18.52,0,0,1-18.52,18.52h0a18.52,18.52,0,0,1-18.53-18.52V189.93A18.53,18.53,0,0,1,229.76,171.4Z"/><ellipse class="cls-3" cx="256" cy="96.53" rx="70.24" ry="64.84"/><rect class="cls-3" x="185.76" y="80.32" width="140.48" height="140.48" rx="16.98"/><path class="cls-4" d="M182.67,99.23H329.33"/><circle class="cls-4" cx="223.58" cy="64.88" r="3.09"/><circle class="cls-4" cx="288.42" cy="64.88" r="3.09"/></svg>